RBDS025runT35_grf
version=1
nRows=30
nColumns=19
inDegrees=no
endheader
time	ground_force_r_vx	ground_force_r_vy	ground_force_r_vz	ground_force_r_px	ground_force_r_py	ground_force_r_pz	ground_force_r_mx	ground_force_r_my	ground_force_r_mz	ground_force_l_vx	ground_force_l_vy	ground_force_l_vz	ground_force_l_px	ground_force_l_py	ground_force_l_pz	ground_force_l_mx	ground_force_l_my	ground_force_l_mz
      7.49900000	      0.00000000	      0.00000000	      0.00000000	      0.00000000	      0.00000000	      0.00000000	      0.00000000	      0.00000000	      0.00000000	    142.23586523	   1097.04225895	    -15.35067815	      2.02207493	      0.00000000	      0.87385948	      0.00000000	      9.97526866	     -0.00000000
      7.50000000	      0.00000000	      0.00000000	      0.00000000	      0.00000000	      0.00000000	      0.00000000	      0.00000000	      0.00000000	      0.00000000	    144.43837320	   1078.69919681	    -16.03277687	      2.01877564	      0.00000000	      0.87380804	      0.00000000	      9.85559162	     -0.00000000
      7.50100000	      0.00000000	      0.00000000	      0.00000000	      0.00000000	      0.00000000	      0.00000000	      0.00000000	      0.00000000	      0.00000000	    146.06255828	   1059.71056991	    -16.59634190	      2.01545904	      0.00000000	      0.87375497	      0.00000000	      9.72721373	     -0.00000000
      7.50200000	      0.00000000	      0.00000000	      0.00000000	      0.00000000	      0.00000000	      0.00000000	      0.00000000	      0.00000000	      0.00000000	    147.68674335	   1040.72194300	    -17.15990693	      2.01214245	      0.00000000	      0.87370190	      0.00000000	      9.59883583	     -0.00000000
      7.50300000	      0.00000000	      0.00000000	      0.00000000	      0.00000000	      0.00000000	      0.00000000	      0.00000000	      0.00000000	      0.00000000	    149.31092843	   1021.73331610	    -17.72347196	      2.00882585	      0.00000000	      0.87364883	      0.00000000	      9.47045793	     -0.00000000
      7.50400000	      0.00000000	      0.00000000	      0.00000000	      0.00000000	      0.00000000	      0.00000000	      0.00000000	      0.00000000	      0.00000000	    150.54593780	   1002.41095538	    -18.20309743	      2.00550362	      0.00000000	      0.87359699	      0.00000000	      9.33625966	     -0.00000000
      7.50500000	      0.00000000	      0.00000000	      0.00000000	      0.00000000	      0.00000000	      0.00000000	      0.00000000	      0.00000000	      0.00000000	    151.58635933	    982.92172776	    -18.64075311	      2.00217858	      0.00000000	      0.87354576	      0.00000000	      9.19915121	     -0.00000000
      7.50600000	      0.00000000	      0.00000000	      0.00000000	      0.00000000	      0.00000000	      0.00000000	      0.00000000	      0.00000000	      0.00000000	    152.62678086	    963.43250014	    -19.07840880	      1.99885354	      0.00000000	      0.87349453	      0.00000000	      9.06204276	     -0.00000000
      7.50700000	      0.00000000	      0.00000000	      0.00000000	      0.00000000	      0.00000000	      0.00000000	      0.00000000	      0.00000000	      0.00000000	    153.47404098	    943.82722392	    -19.47266308	      1.99552937	      0.00000000	      0.87344523	      0.00000000	      8.92202044	     -0.00000000
      7.50800000	      0.00000000	      0.00000000	      0.00000000	      0.00000000	      0.00000000	      0.00000000	      0.00000000	      0.00000000	      0.00000000	    153.93497826	    923.98985048	    -19.78011458	      1.99220696	      0.00000000	      0.87339980	      0.00000000	      8.77617036	      0.00000000
      7.50900000	      0.00000000	      0.00000000	      0.00000000	      0.00000000	      0.00000000	      0.00000000	      0.00000000	      0.00000000	      0.00000000	    154.39591555	    904.15247704	    -20.08756607	      1.98888455	      0.00000000	      0.87335436	      0.00000000	      8.63032029	      0.00000000
      7.51000000	      0.00000000	      0.00000000	      0.00000000	      0.00000000	      0.00000000	      0.00000000	      0.00000000	      0.00000000	      0.00000000	    154.85685283	    884.31510360	    -20.39501757	      1.98556213	      0.00000000	      0.87330893	      0.00000000	      8.48447021	      0.00000000
      7.51100000	      0.00000000	      0.00000000	      0.00000000	      0.00000000	      0.00000000	      0.00000000	      0.00000000	      0.00000000	      0.00000000	    154.75236643	    864.28738923	    -20.57113264	      1.98225556	      0.00000000	      0.87327358	      0.00000000	      8.32995038	      0.00000000
      7.51200000	      0.00000000	      0.00000000	      0.00000000	      0.00000000	      0.00000000	      0.00000000	      0.00000000	      0.00000000	      0.00000000	    154.64788002	    844.25967486	    -20.74724772	      1.97894898	      0.00000000	      0.87323822	      0.00000000	      8.17543055	      0.00000000
      7.51300000	      0.00000000	      0.00000000	      0.00000000	      0.00000000	      0.00000000	      0.00000000	      0.00000000	      0.00000000	      0.00000000	    154.54339362	    824.23196049	    -20.92336279	      1.97564241	      0.00000000	      0.87320287	      0.00000000	      8.02091072	      0.00000000
      7.51400000	      0.00000000	      0.00000000	      0.00000000	      0.00000000	      0.00000000	      0.00000000	      0.00000000	      0.00000000	      0.00000000	    154.07776085	    804.18454046	    -21.01326347	      1.97235651	      0.00000000	      0.87317720	      0.00000000	      7.86075710	      0.00000000
      7.51500000	      0.00000000	      0.00000000	      0.00000000	      0.00000000	      0.00000000	      0.00000000	      0.00000000	      0.00000000	      0.00000000	    153.43155492	    784.12726760	    -21.06005695	      1.96908094	      0.00000000	      0.87315638	      0.00000000	      7.69778659	      0.00000000
      7.51600000	      0.00000000	      0.00000000	      0.00000000	      0.00000000	      0.00000000	      0.00000000	      0.00000000	      0.00000000	      0.00000000	    152.78534898	    764.06999474	    -21.10685043	      1.96580538	      0.00000000	      0.87313555	      0.00000000	      7.53481608	      0.00000000
      7.51700000	      0.00000000	      0.00000000	      0.00000000	      0.00000000	      0.00000000	      0.00000000	      0.00000000	      0.00000000	      0.00000000	    151.96956730	    744.05660253	    -21.11221939	      1.96254577	      0.00000000	      0.87312102	      0.00000000	      7.36917038	      0.00000000
      7.51800000	      0.00000000	      0.00000000	      0.00000000	      0.00000000	      0.00000000	      0.00000000	      0.00000000	      0.00000000	      0.00000000	    150.81463417	    724.13097161	    -21.03473934	      1.95931809	      0.00000000	      0.87311910	      0.00000000	      7.19817433	      0.00000000
      7.51900000	      0.00000000	      0.00000000	      0.00000000	      0.00000000	      0.00000000	      0.00000000	      0.00000000	      0.00000000	      0.00000000	    149.65970103	    704.20534069	    -20.95725928	      1.95609040	      0.00000000	      0.87311718	      0.00000000	      7.02717827	      0.00000000
      7.52000000	      0.00000000	      0.00000000	      0.00000000	      0.00000000	      0.00000000	      0.00000000	      0.00000000	      0.00000000	      0.00000000	    148.50476789	    684.27970978	    -20.87977923	      1.95286271	      0.00000000	      0.87311526	      0.00000000	      6.85618221	      0.00000000
      7.52100000	      0.00000000	      0.00000000	      0.00000000	      0.00000000	      0.00000000	      0.00000000	      0.00000000	      0.00000000	      0.00000000	    146.88280265	    664.64464938	    -20.68589833	      1.94970109	      0.00000000	      0.87313634	      0.00000000	      6.67784018	      0.00000000
      7.52200000	      0.00000000	      0.00000000	      0.00000000	      0.00000000	      0.00000000	      0.00000000	      0.00000000	      0.00000000	      0.00000000	    145.26083741	    645.00958899	    -20.49201743	      1.94653948	      0.00000000	      0.87315741	      0.00000000	      6.49949814	      0.00000000
      7.52300000	      0.00000000	      0.00000000	      0.00000000	      0.00000000	      0.00000000	      0.00000000	      0.00000000	      0.00000000	      0.00000000	    143.63887218	    625.37452859	    -20.29813653	      1.94337786	      0.00000000	      0.87317849	      0.00000000	      6.32115611	      0.00000000
      7.52400000	      0.00000000	      0.00000000	      0.00000000	      0.00000000	      0.00000000	      0.00000000	      0.00000000	      0.00000000	      0.00000000	    141.73860423	    606.03578518	    -20.03358937	      1.94027298	      0.00000000	      0.87321727	      0.00000000	      6.13856166	      0.00000000
      7.52500000	      0.00000000	      0.00000000	      0.00000000	      0.00000000	      0.00000000	      0.00000000	      0.00000000	      0.00000000	      0.00000000	    139.69918493	    586.84520024	    -19.73370908	      1.93719647	      0.00000000	      0.87326491	      0.00000000	      5.95384102	      0.00000000
      7.52600000	      0.00000000	      0.00000000	      0.00000000	      0.00000000	      0.00000000	      0.00000000	      0.00000000	      0.00000000	      0.00000000	    137.65976563	    567.65461531	    -19.43382879	      1.93411996	      0.00000000	      0.87331255	      0.00000000	      5.76912037	      0.00000000
      7.52700000	      0.00000000	      0.00000000	      0.00000000	      0.00000000	      0.00000000	      0.00000000	      0.00000000	      0.00000000	      0.00000000	    135.49999882	    548.66090415	    -19.10280151	      1.93107827	      0.00000000	      0.87336997	      0.00000000	      5.58269680	      0.00000000
      7.52800000	      0.00000000	      0.00000000	      0.00000000	      0.00000000	      0.00000000	      0.00000000	      0.00000000	      0.00000000	      0.00000000	    133.09953696	    530.06094054	    -18.70948025	      1.92810621	      0.00000000	      0.87344695	      0.00000000	      5.39286739	      0.00000000
